<?xml version="1.0" encoding="utf-8"?>
<!-- Generator: Adobe Illustrator 18.0.0, SVG Export Plug-In . SVG Version: 6.00 Build 0)  -->
<!DOCTYPE svg PUBLIC "-//W3C//DTD SVG 1.1//EN" "http://www.w3.org/Graphics/SVG/1.1/DTD/svg11.dtd">
<svg version="1.1" id="Camada_1" xmlns="http://www.w3.org/2000/svg" xmlns:xlink="http://www.w3.org/1999/xlink" x="0px" y="0px"
	 viewBox="0 0 255 101.3" enable-background="new 0 0 255 101.3" xml:space="preserve">
<g id="XMLID_171_">
	<g id="XMLID_174_">
		<path id="XMLID_207_" fill="#FFFFFF" d="M70.7,45.6c2.1,1.2,3.6,3,4.8,5.2c1.1,2.2,1.7,4.7,1.7,7.5c0,0.6-0.2,1-0.5,1.4
			c-0.4,0.3-0.8,0.5-1.4,0.5H53.4c0.3,3,1.4,5.3,3.5,7.2c2,1.8,4.5,2.8,7.6,2.8c1.3,0,2.6-0.2,3.9-0.7c1.3-0.5,2.4-1,3.2-1.7
			c0.5-0.4,1-0.5,1.5-0.5c0.4,0,0.8,0.1,1.2,0.4c0.5,0.4,0.7,0.9,0.7,1.5c0,0.5-0.2,0.9-0.6,1.2c-1.2,1-2.7,1.8-4.5,2.5
			s-3.6,1-5.3,1c-2.9,0-5.5-0.6-7.7-1.9c-2.3-1.3-4-3.1-5.3-5.3c-1.3-2.3-1.9-4.9-1.9-7.7c0-2.9,0.6-5.5,1.8-7.8s2.9-4.1,5-5.3
			c2.1-1.3,4.6-1.9,7.3-1.9C66.3,43.7,68.6,44.4,70.7,45.6z M56.8,50c-1.8,1.7-2.9,3.9-3.3,6.7h19.8c-0.3-2.8-1.3-5-3-6.7
			c-1.7-1.7-3.9-2.5-6.6-2.5C60.9,47.5,58.6,48.3,56.8,50z"/>
	</g>
</g>
<g id="XMLID_170_" opacity="0.72">
	<g id="XMLID_203_">
		<path id="XMLID_204_" fill="#DA0000" d="M202.9,44.9l-0.1,26.7c0,0.7,0.7,1.1,1.3,0.8l24.5-13.2c0.6-0.3,0.6-1.2,0-1.6l-24.4-13.4
			C203.6,43.8,202.9,44.3,202.9,44.9z"/>
	</g>
</g>
<g id="XMLID_167_">
	<g id="XMLID_198_">
		<path id="XMLID_199_" fill="#FFFFFF" d="M113.1,45.9v12.7c0,2.8-0.7,5.4-2,7.7c-1.3,2.3-3.1,4.1-5.4,5.4c-2.3,1.3-4.8,2-7.6,2
			c-2.8,0-5.4-0.7-7.6-2c-2.3-1.3-4.1-3.1-5.4-5.4c-1.3-2.3-2-4.9-2-7.7s0.6-5.4,1.9-7.6c1.3-2.3,3-4.1,5.2-5.4c2.2-1.3,4.7-2,7.4-2
			c2.3,0,4.5,0.5,6.4,1.5c1.5,0.7,2.7,1.7,3.8,2.8c0.4,0.4,1,0.2,1-0.4V33.3c0-0.6,0.2-1.1,0.6-1.5c0.4-0.4,0.9-0.6,1.5-0.6
			c0.6,0,1.1,0.2,1.5,0.6c0.4,0.4,0.6,0.9,0.6,1.5v12.1C113.1,45.5,113.1,45.7,113.1,45.9z M103.7,68.4c1.7-1,3-2.3,3.9-4
			c1-1.7,1.4-3.6,1.4-5.8c0-0.6,0-1.1-0.1-1.4c0-0.1-0.1-0.2-0.1-0.3c-0.4-2.8-1.5-5.1-3.5-6.9c-2-1.8-4.4-2.7-7.3-2.7
			c-2.1,0-3.9,0.5-5.6,1.5c-1.7,1-3,2.3-3.9,4c-1,1.7-1.4,3.6-1.4,5.8s0.5,4,1.4,5.8c1,1.7,2.3,3.1,3.9,4c1.7,1,3.5,1.5,5.6,1.5
			C100.2,69.9,102,69.4,103.7,68.4z"/>
	</g>
</g>
<g id="XMLID_164_">
	<g id="XMLID_193_">
		<path id="XMLID_194_" fill="#FFFFFF" d="M123.7,37.4c-0.6-0.6-0.8-1.3-0.8-2.1c0-0.9,0.3-1.6,0.9-2.1c0.6-0.5,1.3-0.8,2.1-0.8
			c0.8,0,1.5,0.3,2.1,0.8c0.6,0.5,0.9,1.2,0.9,2.1c0,0.8-0.3,1.5-0.9,2.1c-0.6,0.6-1.3,0.9-2.1,0.9C124.9,38.2,124.2,38,123.7,37.4z
			 M124.3,72.8c-0.4-0.4-0.6-0.9-0.6-1.5V46c0-0.6,0.2-1.1,0.6-1.5c0.4-0.4,0.9-0.6,1.5-0.6c0.6,0,1.1,0.2,1.5,0.6
			c0.4,0.4,0.6,0.9,0.6,1.5v25.3c0,0.6-0.2,1.1-0.6,1.5c-0.4,0.4-0.9,0.6-1.5,0.6C125.2,73.4,124.7,73.2,124.3,72.8z"/>
	</g>
</g>
<g id="XMLID_162_">
	<g id="XMLID_189_">
		<path id="XMLID_190_" fill="#FFFFFF" d="M152.9,69.8c0.3,0.3,0.4,0.6,0.5,1c0.1,0.8-0.1,1.6-0.8,2.1c-0.4,0.3-0.9,0.4-1.4,0.4H150
			c-1.9,0-3.6-0.5-5.1-1.4s-2.7-2.2-3.5-3.7c-0.8-1.6-1.3-3.3-1.3-5.3V49.1c0-0.3-0.3-0.6-0.6-0.6h-2.9c-0.6,0-1-0.2-1.4-0.5
			c-0.3-0.3-0.5-0.8-0.5-1.3c0-0.5,0.2-1,0.5-1.3c0.3-0.3,0.8-0.5,1.4-0.5h2.9c0.3,0,0.6-0.3,0.6-0.6v-7.8c0-0.6,0.2-1.1,0.6-1.5
			c0.4-0.4,0.9-0.6,1.5-0.6c0.6,0,1.1,0.2,1.5,0.6c0.4,0.4,0.6,0.9,0.6,1.5v7.8c0,0.3,0.3,0.6,0.6,0.6h5.5c0.6,0,1,0.2,1.4,0.5
			c0.3,0.3,0.5,0.8,0.5,1.3c0,0.5-0.2,0.9-0.5,1.3c-0.3,0.3-0.8,0.5-1.4,0.5h-5.5c-0.3,0-0.6,0.3-0.6,0.6V63c0,1.8,0.5,3.3,1.6,4.5
			c1.1,1.2,2.5,1.8,4.2,1.8h1.5C152,69.2,152.5,69.4,152.9,69.8z"/>
	</g>
</g>
<g id="XMLID_159_">
	<g id="XMLID_184_">
		<path id="XMLID_185_" fill="#FFFFFF" d="M181.3,45.6c2.3,1.3,4.1,3.1,5.4,5.4c1.3,2.3,2,4.9,2,7.7v12.7c0,0.6-0.2,1.1-0.6,1.5
			c-0.4,0.4-0.9,0.6-1.5,0.6c-0.6,0-1.1-0.2-1.5-0.6c-0.4-0.4-0.6-0.9-0.6-1.5v-1.6c0-0.5-0.7-0.8-1-0.4c-1.1,1.2-2.3,2.1-3.8,2.8
			c-1.9,1-4.1,1.5-6.4,1.5c-2.7,0-5.2-0.7-7.4-2c-2.2-1.3-4-3.1-5.2-5.4c-1.3-2.3-1.9-4.8-1.9-7.6c0-2.8,0.7-5.4,2-7.7
			c1.3-2.3,3.1-4.1,5.4-5.4c2.3-1.3,4.8-2,7.6-2C176.4,43.6,179,44.2,181.3,45.6z M179.2,68.4c1.7-1,3-2.3,3.9-4
			c1-1.7,1.4-3.6,1.4-5.8c0-2.1-0.5-4-1.4-5.8c-1-1.7-2.3-3.1-3.9-4c-1.7-1-3.5-1.5-5.6-1.5c-2.1,0-3.9,0.5-5.6,1.5s-3,2.3-3.9,4
			c-1,1.7-1.4,3.6-1.4,5.8c0,2.1,0.5,4,1.4,5.8c1,1.7,2.3,3.1,3.9,4c1.7,1,3.5,1.5,5.6,1.5C175.7,69.9,177.5,69.4,179.2,68.4z"/>
	</g>
</g>
<g id="XMLID_156_">
	<g id="XMLID_179_">
		<path id="XMLID_180_" fill="#FFFFFF" d="M194.6,37c-0.6-0.6-0.8-1.3-0.8-2.1c0-0.9,0.3-1.6,0.9-2.1c0.6-0.5,1.3-0.8,2.1-0.8
			c0.8,0,1.5,0.3,2.1,0.8c0.6,0.5,0.9,1.2,0.9,2.1c0,0.8-0.3,1.5-0.9,2.1c-0.6,0.6-1.3,0.9-2.1,0.9C195.9,37.8,195.2,37.5,194.6,37z
			 M195.2,72.4c-0.4-0.4-0.6-0.9-0.6-1.5V45.5c0-0.6,0.2-1.1,0.6-1.5c0.4-0.4,0.9-0.6,1.5-0.6c0.6,0,1.1,0.2,1.5,0.6
			c0.4,0.4,0.6,0.9,0.6,1.5v25.3c0,0.6-0.2,1.1-0.6,1.5c-0.4,0.4-0.9,0.6-1.5,0.6C196.1,73,195.6,72.8,195.2,72.4z"/>
	</g>
</g>
</svg>
