<?xml version="1.0" encoding="utf-8"?>
<!-- Generator: Adobe Illustrator 19.0.0, SVG Export Plug-In . SVG Version: 6.00 Build 0)  -->
<svg version="1.1" id="Camada_1" xmlns="http://www.w3.org/2000/svg" xmlns:xlink="http://www.w3.org/1999/xlink" x="0px" y="0px"
	 viewBox="28 50.7 255 101.3" style="enable-background:new 28 50.7 255 101.3;" xml:space="preserve">
<style type="text/css">
	.st0{fill:#FFFFFF;}
	.st1{opacity:0.72;}
	.st2{fill:#DA0000;}
</style>
<g id="XMLID_171_">
	<g id="XMLID_174_">
		<path id="XMLID_207_" class="st0" d="M98.7,96.3c2.1,1.2,3.6,3,4.8,5.2c1.1,2.2,1.7,4.7,1.7,7.5c0,0.6-0.2,1-0.5,1.4
			c-0.4,0.3-0.8,0.5-1.4,0.5H81.4c0.3,3,1.4,5.3,3.5,7.2c2,1.8,4.5,2.8,7.6,2.8c1.3,0,2.6-0.2,3.9-0.7s2.4-1,3.2-1.7
			c0.5-0.4,1-0.5,1.5-0.5c0.4,0,0.8,0.1,1.2,0.4c0.5,0.4,0.7,0.9,0.7,1.5c0,0.5-0.2,0.9-0.6,1.2c-1.2,1-2.7,1.8-4.5,2.5
			s-3.6,1-5.3,1c-2.9,0-5.5-0.6-7.7-1.9c-2.3-1.3-4-3.1-5.3-5.3c-1.3-2.3-1.9-4.9-1.9-7.7c0-2.9,0.6-5.5,1.8-7.8
			c1.2-2.3,2.9-4.1,5-5.3c2.1-1.3,4.6-1.9,7.3-1.9C94.3,94.4,96.6,95.1,98.7,96.3z M84.8,100.7c-1.8,1.7-2.9,3.9-3.3,6.7h19.8
			c-0.3-2.8-1.3-5-3-6.7s-3.9-2.5-6.6-2.5C88.9,98.2,86.6,99,84.8,100.7z"/>
	</g>
</g>
<g id="XMLID_170_" class="st1">
	<g id="XMLID_203_">
		<path id="XMLID_204_" class="st2" d="M230.9,95.6l-0.1,26.7c0,0.7,0.7,1.1,1.3,0.8l24.5-13.2c0.6-0.3,0.6-1.2,0-1.6l-24.4-13.4
			C231.6,94.5,230.9,95,230.9,95.6z"/>
	</g>
</g>
<g id="XMLID_167_">
	<g id="XMLID_198_">
		<path id="XMLID_199_" class="st0" d="M141.1,96.6v12.7c0,2.8-0.7,5.4-2,7.7c-1.3,2.3-3.1,4.1-5.4,5.4s-4.8,2-7.6,2
			c-2.8,0-5.4-0.7-7.6-2c-2.3-1.3-4.1-3.1-5.4-5.4s-2-4.9-2-7.7c0-2.8,0.6-5.4,1.9-7.6c1.3-2.3,3-4.1,5.2-5.4s4.7-2,7.4-2
			c2.3,0,4.5,0.5,6.4,1.5c1.5,0.7,2.7,1.7,3.8,2.8c0.4,0.4,1,0.2,1-0.4V84c0-0.6,0.2-1.1,0.6-1.5c0.4-0.4,0.9-0.6,1.5-0.6
			c0.6,0,1.1,0.2,1.5,0.6c0.4,0.4,0.6,0.9,0.6,1.5v12.1C141.1,96.2,141.1,96.4,141.1,96.6z M131.7,119.1c1.7-1,3-2.3,3.9-4
			c1-1.7,1.4-3.6,1.4-5.8c0-0.6,0-1.1-0.1-1.4c0-0.1-0.1-0.2-0.1-0.3c-0.4-2.8-1.5-5.1-3.5-6.9S128.9,98,126,98
			c-2.1,0-3.9,0.5-5.6,1.5s-3,2.3-3.9,4c-1,1.7-1.4,3.6-1.4,5.8s0.5,4,1.4,5.8c1,1.7,2.3,3.1,3.9,4c1.7,1,3.5,1.5,5.6,1.5
			C128.2,120.6,130,120.1,131.7,119.1z"/>
	</g>
</g>
<g id="XMLID_164_">
	<g id="XMLID_193_">
		<path id="XMLID_194_" class="st0" d="M151.7,88.1c-0.6-0.6-0.8-1.3-0.8-2.1c0-0.9,0.3-1.6,0.9-2.1c0.6-0.5,1.3-0.8,2.1-0.8
			c0.8,0,1.5,0.3,2.1,0.8c0.6,0.5,0.9,1.2,0.9,2.1c0,0.8-0.3,1.5-0.9,2.1c-0.6,0.6-1.3,0.9-2.1,0.9
			C152.9,88.9,152.2,88.7,151.7,88.1z M152.3,123.5c-0.4-0.4-0.6-0.9-0.6-1.5V96.7c0-0.6,0.2-1.1,0.6-1.5s0.9-0.6,1.5-0.6
			s1.1,0.2,1.5,0.6c0.4,0.4,0.6,0.9,0.6,1.5V122c0,0.6-0.2,1.1-0.6,1.5s-0.9,0.6-1.5,0.6C153.2,124.1,152.7,123.9,152.3,123.5z"/>
	</g>
</g>
<g id="XMLID_162_">
	<g id="XMLID_189_">
		<path id="XMLID_190_" class="st0" d="M180.9,120.5c0.3,0.3,0.4,0.6,0.5,1c0.1,0.8-0.1,1.6-0.8,2.1c-0.4,0.3-0.9,0.4-1.4,0.4H178
			c-1.9,0-3.6-0.5-5.1-1.4s-2.7-2.2-3.5-3.7c-0.8-1.6-1.3-3.3-1.3-5.3V99.8c0-0.3-0.3-0.6-0.6-0.6h-2.9c-0.6,0-1-0.2-1.4-0.5
			c-0.3-0.3-0.5-0.8-0.5-1.3s0.2-1,0.5-1.3s0.8-0.5,1.4-0.5h2.9c0.3,0,0.6-0.3,0.6-0.6v-7.8c0-0.6,0.2-1.1,0.6-1.5
			c0.4-0.4,0.9-0.6,1.5-0.6s1.1,0.2,1.5,0.6c0.4,0.4,0.6,0.9,0.6,1.5V95c0,0.3,0.3,0.6,0.6,0.6h5.5c0.6,0,1,0.2,1.4,0.5
			c0.3,0.3,0.5,0.8,0.5,1.3s-0.2,0.9-0.5,1.3c-0.3,0.3-0.8,0.5-1.4,0.5h-5.5c-0.3,0-0.6,0.3-0.6,0.6v13.9c0,1.8,0.5,3.3,1.6,4.5
			s2.5,1.8,4.2,1.8h1.5C180,119.9,180.5,120.1,180.9,120.5z"/>
	</g>
</g>
<g id="XMLID_159_">
	<g id="XMLID_184_">
		<path id="XMLID_185_" class="st0" d="M209.3,96.3c2.3,1.3,4.1,3.1,5.4,5.4c1.3,2.3,2,4.9,2,7.7v12.7c0,0.6-0.2,1.1-0.6,1.5
			c-0.4,0.4-0.9,0.6-1.5,0.6s-1.1-0.2-1.5-0.6s-0.6-0.9-0.6-1.5v-1.6c0-0.5-0.7-0.8-1-0.4c-1.1,1.2-2.3,2.1-3.8,2.8
			c-1.9,1-4.1,1.5-6.4,1.5c-2.7,0-5.2-0.7-7.4-2s-4-3.1-5.2-5.4c-1.3-2.3-1.9-4.8-1.9-7.6s0.7-5.4,2-7.7c1.3-2.3,3.1-4.1,5.4-5.4
			c2.3-1.3,4.8-2,7.6-2C204.4,94.3,207,94.9,209.3,96.3z M207.2,119.1c1.7-1,3-2.3,3.9-4c1-1.7,1.4-3.6,1.4-5.8c0-2.1-0.5-4-1.4-5.8
			c-1-1.7-2.3-3.1-3.9-4c-1.7-1-3.5-1.5-5.6-1.5s-3.9,0.5-5.6,1.5s-3,2.3-3.9,4c-1,1.7-1.4,3.6-1.4,5.8c0,2.1,0.5,4,1.4,5.8
			c1,1.7,2.3,3.1,3.9,4c1.7,1,3.5,1.5,5.6,1.5S205.5,120.1,207.2,119.1z"/>
	</g>
</g>
<g id="XMLID_179_">
	<path id="XMLID_180_" class="st0" d="M222.6,89.6c0.2-1,5.8-3.8,6.4-3.3s-2.3,6.2-3.3,6.3c-1,0.2-1.8-0.1-2.4-0.6
		C222.8,91.2,222.6,90.5,222.6,89.6z M223.2,123.1c-0.4-0.4-0.6-0.9-0.6-1.5V96.2c0-0.6,0.2-1.1,0.6-1.5c0.4-0.4,0.9-0.6,1.5-0.6
		s1.1,0.2,1.5,0.6c0.4,0.4,0.6,0.9,0.6,1.5v25.3c0,0.6-0.2,1.1-0.6,1.5c-0.4,0.4-0.9,0.6-1.5,0.6
		C224.1,123.7,223.6,123.5,223.2,123.1z"/>
</g>
</svg>
